<?xml version="1.0" standalone="no"?>
<!DOCTYPE svg PUBLIC "-//W3C//DTD SVG 20010904//EN"
 "http://www.w3.org/TR/2001/REC-SVG-20010904/DTD/svg10.dtd">
<svg version="1.0" xmlns="http://www.w3.org/2000/svg"
 width="260.000000pt" height="260.000000pt" viewBox="0 0 260.000000 260.000000"
 preserveAspectRatio="xMidYMid meet">
<metadata>
Created by potrace 1.14, written by Peter Selinger 2001-2017
</metadata>
<g transform="translate(0.000000,260.000000) scale(0.100000,-0.100000)"
fill="#000000" stroke="none">
<path d="M163 1981 l0 -140 51 -22 c28 -12 98 -44 155 -70 57 -27 105 -49 106
-49 2 0 50 -22 107 -49 122 -57 161 -76 417 -192 106 -49 196 -87 200 -85 3 2
5 48 4 103 -1 54 -2 119 -2 144 l-1 45 -227 102 c-548 244 -794 352 -802 352
-4 0 -8 -63 -8 -139z"/>
<path d="M2390 2109 c-8 -5 -112 -50 -230 -99 -118 -50 -242 -102 -275 -116
-59 -25 -72 -31 -165 -72 -25 -10 -118 -50 -207 -87 l-163 -69 0 -148 c0 -81
2 -148 4 -148 7 0 142 58 219 94 42 20 79 36 82 36 3 0 38 15 77 33 40 18 215
96 389 171 l316 139 -1 136 c-1 113 -4 136 -16 138 -8 1 -22 -2 -30 -8z"/>
<path d="M164 1071 l-1 -478 111 -41 c60 -23 112 -39 115 -37 2 3 4 151 4 330
0 179 3 325 7 325 3 0 24 -9 46 -19 21 -10 111 -51 199 -91 88 -40 202 -92
254 -116 51 -24 95 -44 97 -44 2 0 38 -17 81 -38 43 -21 86 -41 96 -45 16 -6
17 5 17 147 l0 154 -47 20 c-27 11 -214 90 -418 177 -203 86 -383 162 -400
170 -49 21 -154 65 -158 65 -2 0 -3 -215 -3 -479z"/>
<path d="M2135 1436 c-610 -247 -778 -315 -782 -319 -2 -2 -2 -72 -1 -154 l3
-150 409 178 c224 99 412 179 416 179 3 0 7 -146 7 -325 0 -179 2 -327 4 -329
2 -3 56 14 120 36 l116 41 0 478 c0 264 -3 479 -6 479 -3 -1 -132 -52 -286
-114z"/>
</g>
</svg>
